<svg xmlns="http://www.w3.org/2000/svg" version="1.1" xmlns:xlink="http://www.w3.org/1999/xlink" width="512" height="512" x="0" y="0" viewBox="0 0 48 48" style="enable-background:new 0 0 512 512" xml:space="preserve" class=""><g><circle cx="15.5" cy="21.5" r="1.5" fill="#000000" opacity="1" data-original="#000000" class=""></circle><circle cx="21.5" cy="21.5" r="1.5" fill="#000000" opacity="1" data-original="#000000" class=""></circle><circle cx="15.5" cy="33.5" r="1.5" fill="#000000" opacity="1" data-original="#000000" class=""></circle><circle cx="21.5" cy="33.5" r="1.5" fill="#000000" opacity="1" data-original="#000000" class=""></circle><circle cx="27.5" cy="33.5" r="1.5" fill="#000000" opacity="1" data-original="#000000" class=""></circle><circle cx="33.5" cy="33.5" r="1.5" fill="#000000" opacity="1" data-original="#000000" class=""></circle><path d="M39 8h-5v5a1 1 0 0 1-2 0V8H16v5a1 1 0 0 1-2 0V8H9a3 3 0 0 0-3 3v25a4 4 0 0 0 4 4h28a4 4 0 0 0 4-4v-4a1 1 0 0 0-2 0v4a2 2 0 0 1-2 2H10a2 2 0 0 1-2-2V16h32v9a1 1 0 0 0 2 0V11a3 3 0 0 0-3-3z" fill="#000000" opacity="1" data-original="#000000" class=""></path><circle cx="33.5" cy="27.5" r="1.5" fill="#000000" opacity="1" data-original="#000000" class=""></circle><rect width="15" height="3" x="14" y="26" rx="1.5" fill="#000000" opacity="1" data-original="#000000" class=""></rect><rect width="9" height="3" x="26" y="20" rx="1.5" fill="#000000" opacity="1" data-original="#000000" class=""></rect></g></svg>